<mxfile host="Electron" agent="Mozilla/5.0 (Windows NT 10.0; Win64; x64) AppleWebKit/537.36 (KHTML, like Gecko) draw.io/24.7.5 Chrome/126.0.6478.183 Electron/31.3.0 Safari/537.36" version="24.7.5">
  <diagram name="Page-1" id="hAvGSFw9dj1YhqL5--P1">
    <mxGraphModel dx="1050" dy="621" grid="1" gridSize="10" guides="1" tooltips="1" connect="1" arrows="1" fold="1" page="1" pageScale="1" pageWidth="1169" pageHeight="827" math="0" shadow="0">
      <root>
        <mxCell id="0" />
        <mxCell id="1" parent="0" />
        <mxCell id="6HQJpVp2JJiILHIEEDIj-74" value="&lt;font style=&quot;font-size: 25px;&quot;&gt;Read&lt;/font&gt;&lt;div style=&quot;font-size: 25px;&quot;&gt;&lt;font style=&quot;font-size: 25px;&quot;&gt;pointer&lt;/font&gt;&lt;/div&gt;&lt;div style=&quot;font-size: 25px;&quot;&gt;&lt;font style=&quot;font-size: 25px;&quot;&gt;handler&lt;/font&gt;&lt;/div&gt;" style="rounded=0;whiteSpace=wrap;html=1;fontStyle=1;strokeWidth=2;fontSize=16;labelBackgroundColor=none;" parent="1" vertex="1">
          <mxGeometry x="620" y="360" width="100" height="200" as="geometry" />
        </mxCell>
        <mxCell id="6HQJpVp2JJiILHIEEDIj-72" value="&lt;div style=&quot;font-size: 25px;&quot;&gt;&lt;font style=&quot;font-size: 25px;&quot;&gt;Write&lt;/font&gt;&lt;/div&gt;&lt;div style=&quot;font-size: 25px;&quot;&gt;&lt;font style=&quot;font-size: 25px;&quot;&gt;pointer&lt;/font&gt;&lt;/div&gt;&lt;div style=&quot;font-size: 25px;&quot;&gt;&lt;font style=&quot;font-size: 25px;&quot;&gt;handler&lt;/font&gt;&lt;/div&gt;" style="rounded=0;whiteSpace=wrap;html=1;fontStyle=1;strokeWidth=2;fontSize=16;labelBackgroundColor=none;" parent="1" vertex="1">
          <mxGeometry x="160" y="360" width="100" height="200" as="geometry" />
        </mxCell>
        <mxCell id="6HQJpVp2JJiILHIEEDIj-12" value="" style="rounded=0;whiteSpace=wrap;html=1;fontStyle=1;strokeWidth=2;fontSize=16;labelBackgroundColor=none;" parent="1" vertex="1">
          <mxGeometry x="360" y="160" width="160" height="240" as="geometry" />
        </mxCell>
        <mxCell id="6HQJpVp2JJiILHIEEDIj-2" value="0" style="rounded=0;whiteSpace=wrap;html=1;fontStyle=1;strokeWidth=2;fontSize=16;labelBackgroundColor=none;" parent="1" vertex="1">
          <mxGeometry x="380" y="265" width="20" height="40" as="geometry" />
        </mxCell>
        <mxCell id="6HQJpVp2JJiILHIEEDIj-3" value="1" style="rounded=0;whiteSpace=wrap;html=1;fontStyle=1;strokeWidth=2;fontSize=16;labelBackgroundColor=none;" parent="1" vertex="1">
          <mxGeometry x="400" y="265" width="20" height="40" as="geometry" />
        </mxCell>
        <mxCell id="6HQJpVp2JJiILHIEEDIj-4" value="2" style="rounded=0;whiteSpace=wrap;html=1;fontStyle=1;strokeWidth=2;fontSize=16;labelBackgroundColor=none;" parent="1" vertex="1">
          <mxGeometry x="420" y="265" width="20" height="40" as="geometry" />
        </mxCell>
        <mxCell id="6HQJpVp2JJiILHIEEDIj-5" value="3" style="rounded=0;whiteSpace=wrap;html=1;fontStyle=1;strokeWidth=2;fontSize=16;labelBackgroundColor=none;" parent="1" vertex="1">
          <mxGeometry x="440" y="265" width="20" height="40" as="geometry" />
        </mxCell>
        <mxCell id="6HQJpVp2JJiILHIEEDIj-6" value="..." style="rounded=0;whiteSpace=wrap;html=1;fontStyle=1;strokeWidth=2;fontSize=16;labelBackgroundColor=none;" parent="1" vertex="1">
          <mxGeometry x="460" y="265" width="20" height="40" as="geometry" />
        </mxCell>
        <mxCell id="6HQJpVp2JJiILHIEEDIj-7" value="n" style="rounded=0;whiteSpace=wrap;html=1;fontStyle=1;strokeWidth=2;fontSize=16;labelBackgroundColor=none;" parent="1" vertex="1">
          <mxGeometry x="480" y="265" width="20" height="40" as="geometry" />
        </mxCell>
        <mxCell id="6HQJpVp2JJiILHIEEDIj-10" value="w_ptr" style="endArrow=classic;html=1;rounded=0;entryX=0.5;entryY=0;entryDx=0;entryDy=0;fontStyle=1;strokeWidth=2;fontSize=16;labelBackgroundColor=none;" parent="1" target="6HQJpVp2JJiILHIEEDIj-2" edge="1">
          <mxGeometry x="-1" y="-10" width="50" height="50" relative="1" as="geometry">
            <mxPoint x="390" y="245" as="sourcePoint" />
            <mxPoint x="470" y="195" as="targetPoint" />
            <mxPoint x="10" y="-10" as="offset" />
          </mxGeometry>
        </mxCell>
        <mxCell id="6HQJpVp2JJiILHIEEDIj-11" value="r_ptr" style="endArrow=classic;html=1;rounded=0;entryX=0.5;entryY=1;entryDx=0;entryDy=0;fontStyle=1;strokeWidth=2;fontSize=16;labelBackgroundColor=none;" parent="1" target="6HQJpVp2JJiILHIEEDIj-2" edge="1">
          <mxGeometry x="-1" y="-10" width="50" height="50" relative="1" as="geometry">
            <mxPoint x="390" y="325" as="sourcePoint" />
            <mxPoint x="470" y="235" as="targetPoint" />
            <mxPoint x="-10" y="10" as="offset" />
          </mxGeometry>
        </mxCell>
        <mxCell id="6HQJpVp2JJiILHIEEDIj-13" value="wr_data_i" style="endArrow=classic;html=1;rounded=0;entryX=0;entryY=0.083;entryDx=0;entryDy=0;entryPerimeter=0;fontStyle=1;strokeWidth=2;fontSize=16;labelBackgroundColor=none;" parent="1" target="6HQJpVp2JJiILHIEEDIj-12" edge="1">
          <mxGeometry x="-1" y="-40" width="50" height="50" relative="1" as="geometry">
            <mxPoint x="80" y="180" as="sourcePoint" />
            <mxPoint x="430" y="230" as="targetPoint" />
            <mxPoint x="-40" y="-40" as="offset" />
          </mxGeometry>
        </mxCell>
        <mxCell id="6HQJpVp2JJiILHIEEDIj-14" value="rd_data_o" style="endArrow=classic;html=1;rounded=0;fontStyle=1;strokeWidth=2;fontSize=16;labelBackgroundColor=none;" parent="1" edge="1">
          <mxGeometry x="1" y="40" width="50" height="50" relative="1" as="geometry">
            <mxPoint x="520" y="180" as="sourcePoint" />
            <mxPoint x="800" y="180" as="targetPoint" />
            <mxPoint x="40" y="40" as="offset" />
          </mxGeometry>
        </mxCell>
        <mxCell id="6HQJpVp2JJiILHIEEDIj-15" value="wr_en_i" style="endArrow=classic;html=1;rounded=0;entryX=0;entryY=0.5;entryDx=0;entryDy=0;fontStyle=1;strokeWidth=2;fontSize=16;labelBackgroundColor=none;" parent="1" edge="1">
          <mxGeometry x="-1" y="-40" width="50" height="50" relative="1" as="geometry">
            <mxPoint x="80" y="480" as="sourcePoint" />
            <mxPoint x="160" y="480" as="targetPoint" />
            <mxPoint x="-40" y="-40" as="offset" />
          </mxGeometry>
        </mxCell>
        <mxCell id="6HQJpVp2JJiILHIEEDIj-16" value="rd_en_i" style="endArrow=classic;html=1;rounded=0;entryX=1;entryY=0.5;entryDx=0;entryDy=0;fontStyle=1;strokeWidth=2;fontSize=16;labelBackgroundColor=none;" parent="1" edge="1">
          <mxGeometry x="-1" y="-40" width="50" height="50" relative="1" as="geometry">
            <mxPoint x="800" y="480" as="sourcePoint" />
            <mxPoint x="720" y="480" as="targetPoint" />
            <mxPoint x="40" y="40" as="offset" />
          </mxGeometry>
        </mxCell>
        <mxCell id="6HQJpVp2JJiILHIEEDIj-21" value="" style="triangle;whiteSpace=wrap;html=1;fontStyle=1;strokeWidth=2;fontSize=16;labelBackgroundColor=none;" parent="1" vertex="1">
          <mxGeometry x="360" y="210" width="10" height="20" as="geometry" />
        </mxCell>
        <mxCell id="6HQJpVp2JJiILHIEEDIj-22" value="" style="triangle;whiteSpace=wrap;html=1;direction=west;fontStyle=1;strokeWidth=2;fontSize=16;labelBackgroundColor=none;" parent="1" vertex="1">
          <mxGeometry x="510" y="210" width="10" height="20" as="geometry" />
        </mxCell>
        <mxCell id="6HQJpVp2JJiILHIEEDIj-23" value="wr_full" style="endArrow=classic;startArrow=classic;html=1;rounded=0;fontStyle=1;strokeWidth=2;fontSize=16;labelBackgroundColor=none;" parent="1" edge="1">
          <mxGeometry x="-1" y="-40" width="50" height="50" relative="1" as="geometry">
            <mxPoint x="80" y="340" as="sourcePoint" />
            <mxPoint x="360" y="340" as="targetPoint" />
            <mxPoint x="-40" y="-40" as="offset" />
          </mxGeometry>
        </mxCell>
        <mxCell id="6HQJpVp2JJiILHIEEDIj-24" value="" style="endArrow=none;html=1;rounded=0;exitX=0.5;exitY=0;exitDx=0;exitDy=0;fontStyle=1;strokeWidth=2;fontSize=16;labelBackgroundColor=none;" parent="1" source="6HQJpVp2JJiILHIEEDIj-72" edge="1">
          <mxGeometry width="50" height="50" relative="1" as="geometry">
            <mxPoint x="210" y="400" as="sourcePoint" />
            <mxPoint x="210" y="340" as="targetPoint" />
          </mxGeometry>
        </mxCell>
        <mxCell id="6HQJpVp2JJiILHIEEDIj-29" value="" style="group;fontStyle=1;strokeWidth=2;fontSize=16;labelBackgroundColor=none;" parent="1" vertex="1" connectable="0">
          <mxGeometry x="380" y="480" width="20" height="50" as="geometry" />
        </mxCell>
        <mxCell id="6HQJpVp2JJiILHIEEDIj-46" value="" style="group;fontStyle=1;strokeWidth=2;fontSize=16;labelBackgroundColor=none;" parent="6HQJpVp2JJiILHIEEDIj-29" vertex="1" connectable="0">
          <mxGeometry width="20" height="50" as="geometry" />
        </mxCell>
        <mxCell id="6HQJpVp2JJiILHIEEDIj-26" value="" style="rounded=0;whiteSpace=wrap;html=1;fontStyle=1;strokeWidth=2;fontSize=16;labelBackgroundColor=none;" parent="6HQJpVp2JJiILHIEEDIj-46" vertex="1">
          <mxGeometry width="20" height="50" as="geometry" />
        </mxCell>
        <mxCell id="6HQJpVp2JJiILHIEEDIj-28" value="" style="triangle;whiteSpace=wrap;html=1;direction=west;fontStyle=1;strokeWidth=2;fontSize=16;labelBackgroundColor=none;" parent="6HQJpVp2JJiILHIEEDIj-46" vertex="1">
          <mxGeometry x="10" y="30" width="10" height="10" as="geometry" />
        </mxCell>
        <mxCell id="6HQJpVp2JJiILHIEEDIj-32" value="" style="endArrow=none;html=1;rounded=0;exitX=0;exitY=0.5;exitDx=0;exitDy=0;fontStyle=1;strokeWidth=2;fontSize=16;labelBackgroundColor=none;" parent="1" source="6HQJpVp2JJiILHIEEDIj-28" edge="1">
          <mxGeometry width="50" height="50" relative="1" as="geometry">
            <mxPoint x="430" y="520" as="sourcePoint" />
            <mxPoint x="140" y="220" as="targetPoint" />
            <Array as="points">
              <mxPoint x="420" y="515" />
              <mxPoint x="420" y="620" />
              <mxPoint x="140" y="620" />
            </Array>
          </mxGeometry>
        </mxCell>
        <mxCell id="6HQJpVp2JJiILHIEEDIj-33" value="" style="ellipse;whiteSpace=wrap;html=1;aspect=fixed;fontStyle=1;strokeWidth=2;fontSize=16;labelBackgroundColor=none;" parent="1" vertex="1">
          <mxGeometry x="345" y="530" width="10" height="10" as="geometry" />
        </mxCell>
        <mxCell id="6HQJpVp2JJiILHIEEDIj-34" value="" style="ellipse;whiteSpace=wrap;html=1;aspect=fixed;fontStyle=1;strokeWidth=2;fontSize=16;labelBackgroundColor=none;" parent="1" vertex="1">
          <mxGeometry x="385" y="530" width="10" height="10" as="geometry" />
        </mxCell>
        <mxCell id="6HQJpVp2JJiILHIEEDIj-35" value="" style="endArrow=none;html=1;rounded=0;entryX=0.5;entryY=1;entryDx=0;entryDy=0;fontStyle=1;strokeWidth=2;fontSize=16;labelBackgroundColor=none;" parent="1" target="6HQJpVp2JJiILHIEEDIj-33" edge="1">
          <mxGeometry width="50" height="50" relative="1" as="geometry">
            <mxPoint x="350" y="600" as="sourcePoint" />
            <mxPoint x="480" y="510" as="targetPoint" />
          </mxGeometry>
        </mxCell>
        <mxCell id="6HQJpVp2JJiILHIEEDIj-36" value="" style="endArrow=none;html=1;rounded=0;entryX=0.5;entryY=1;entryDx=0;entryDy=0;fontStyle=1;strokeWidth=2;fontSize=16;labelBackgroundColor=none;" parent="1" target="6HQJpVp2JJiILHIEEDIj-34" edge="1">
          <mxGeometry width="50" height="50" relative="1" as="geometry">
            <mxPoint x="200" y="600" as="sourcePoint" />
            <mxPoint x="450" y="550" as="targetPoint" />
            <Array as="points">
              <mxPoint x="390" y="600" />
            </Array>
          </mxGeometry>
        </mxCell>
        <mxCell id="6HQJpVp2JJiILHIEEDIj-37" value="" style="ellipse;whiteSpace=wrap;html=1;aspect=fixed;fontStyle=1;strokeWidth=2;fontSize=16;labelBackgroundColor=none;" parent="1" vertex="1">
          <mxGeometry x="205" y="560" width="10" height="10" as="geometry" />
        </mxCell>
        <mxCell id="6HQJpVp2JJiILHIEEDIj-39" value="wr_rst_n" style="endArrow=none;html=1;rounded=0;exitX=0.5;exitY=1;exitDx=0;exitDy=0;fontStyle=1;strokeWidth=2;fontSize=16;labelBackgroundColor=none;" parent="1" edge="1">
          <mxGeometry x="1" y="40" width="50" height="50" relative="1" as="geometry">
            <mxPoint x="210" y="570" as="sourcePoint" />
            <mxPoint x="80" y="600" as="targetPoint" />
            <Array as="points">
              <mxPoint x="210" y="600" />
            </Array>
            <mxPoint x="-40" y="-40" as="offset" />
          </mxGeometry>
        </mxCell>
        <mxCell id="6HQJpVp2JJiILHIEEDIj-40" value="g_rptr_sync" style="endArrow=classic;html=1;rounded=0;exitX=0;exitY=0.25;exitDx=0;exitDy=0;entryX=0.998;entryY=0.578;entryDx=0;entryDy=0;entryPerimeter=0;fontStyle=1;strokeWidth=2;fontSize=15;labelBackgroundColor=none;" parent="1" source="6HQJpVp2JJiILHIEEDIj-25" edge="1">
          <mxGeometry x="-0.2517" y="-22" width="50" height="50" relative="1" as="geometry">
            <mxPoint x="350" y="520" as="sourcePoint" />
            <mxPoint x="259.79999999999995" y="492.48" as="targetPoint" />
            <mxPoint as="offset" />
          </mxGeometry>
        </mxCell>
        <mxCell id="6HQJpVp2JJiILHIEEDIj-42" value="" style="endArrow=none;html=1;rounded=0;entryX=0;entryY=0.25;entryDx=0;entryDy=0;exitX=1;exitY=0.25;exitDx=0;exitDy=0;fontStyle=1;strokeWidth=2;fontSize=16;labelBackgroundColor=none;" parent="1" source="6HQJpVp2JJiILHIEEDIj-25" target="6HQJpVp2JJiILHIEEDIj-26" edge="1">
          <mxGeometry width="50" height="50" relative="1" as="geometry">
            <mxPoint x="360" y="510" as="sourcePoint" />
            <mxPoint x="410" y="460" as="targetPoint" />
          </mxGeometry>
        </mxCell>
        <mxCell id="6HQJpVp2JJiILHIEEDIj-43" value="g_rptr" style="endArrow=classic;html=1;rounded=0;entryX=1;entryY=0.25;entryDx=0;entryDy=0;exitX=0;exitY=0.25;exitDx=0;exitDy=0;fontStyle=1;strokeWidth=2;fontSize=15;labelBackgroundColor=none;" parent="1" target="6HQJpVp2JJiILHIEEDIj-26" edge="1">
          <mxGeometry x="-0.6185" y="-10" width="50" height="50" relative="1" as="geometry">
            <mxPoint x="620" y="440" as="sourcePoint" />
            <mxPoint x="470" y="460" as="targetPoint" />
            <Array as="points">
              <mxPoint x="460" y="440" />
              <mxPoint x="420" y="493" />
            </Array>
            <mxPoint as="offset" />
          </mxGeometry>
        </mxCell>
        <mxCell id="6HQJpVp2JJiILHIEEDIj-44" value="g_wptr" style="endArrow=classic;html=1;rounded=0;exitX=1;exitY=0.25;exitDx=0;exitDy=0;entryX=0;entryY=0.25;entryDx=0;entryDy=0;fontStyle=1;strokeWidth=2;fontSize=15;labelBackgroundColor=none;" parent="1" target="6HQJpVp2JJiILHIEEDIj-51" edge="1">
          <mxGeometry x="-0.7609" y="10" width="50" height="50" relative="1" as="geometry">
            <mxPoint x="260" y="440" as="sourcePoint" />
            <mxPoint x="480" y="490" as="targetPoint" />
            <Array as="points">
              <mxPoint x="390" y="440" />
              <mxPoint x="420" y="440" />
              <mxPoint x="460" y="493" />
            </Array>
            <mxPoint as="offset" />
          </mxGeometry>
        </mxCell>
        <mxCell id="6HQJpVp2JJiILHIEEDIj-45" value="" style="group;fontStyle=1;strokeWidth=2;fontSize=16;labelBackgroundColor=none;" parent="1" vertex="1" connectable="0">
          <mxGeometry x="340" y="480" width="20" height="50" as="geometry" />
        </mxCell>
        <mxCell id="6HQJpVp2JJiILHIEEDIj-25" value="" style="rounded=0;whiteSpace=wrap;html=1;fontStyle=1;strokeWidth=2;fontSize=16;labelBackgroundColor=none;" parent="6HQJpVp2JJiILHIEEDIj-45" vertex="1">
          <mxGeometry width="20" height="50" as="geometry" />
        </mxCell>
        <mxCell id="6HQJpVp2JJiILHIEEDIj-27" value="" style="triangle;whiteSpace=wrap;html=1;direction=west;fontStyle=1;strokeWidth=2;fontSize=16;labelBackgroundColor=none;" parent="6HQJpVp2JJiILHIEEDIj-45" vertex="1">
          <mxGeometry x="10" y="30" width="10" height="10" as="geometry" />
        </mxCell>
        <mxCell id="6HQJpVp2JJiILHIEEDIj-47" value="" style="group;fontStyle=1;strokeWidth=2;fontSize=16;labelBackgroundColor=none;" parent="1" vertex="1" connectable="0">
          <mxGeometry x="520" y="480" width="20" height="50" as="geometry" />
        </mxCell>
        <mxCell id="6HQJpVp2JJiILHIEEDIj-48" value="" style="rounded=0;whiteSpace=wrap;html=1;fontStyle=1;strokeWidth=2;fontSize=16;labelBackgroundColor=none;" parent="6HQJpVp2JJiILHIEEDIj-47" vertex="1">
          <mxGeometry width="20" height="50" as="geometry" />
        </mxCell>
        <mxCell id="6HQJpVp2JJiILHIEEDIj-49" value="" style="triangle;whiteSpace=wrap;html=1;direction=east;fontStyle=1;strokeWidth=2;fontSize=16;labelBackgroundColor=none;" parent="6HQJpVp2JJiILHIEEDIj-47" vertex="1">
          <mxGeometry y="30" width="10" height="10" as="geometry" />
        </mxCell>
        <mxCell id="6HQJpVp2JJiILHIEEDIj-50" value="" style="group;fontStyle=1;strokeWidth=2;fontSize=16;labelBackgroundColor=none;" parent="1" vertex="1" connectable="0">
          <mxGeometry x="480" y="480" width="20" height="50" as="geometry" />
        </mxCell>
        <mxCell id="6HQJpVp2JJiILHIEEDIj-51" value="" style="rounded=0;whiteSpace=wrap;html=1;fontStyle=1;strokeWidth=2;fontSize=16;labelBackgroundColor=none;" parent="6HQJpVp2JJiILHIEEDIj-50" vertex="1">
          <mxGeometry width="20" height="50" as="geometry" />
        </mxCell>
        <mxCell id="6HQJpVp2JJiILHIEEDIj-52" value="" style="triangle;whiteSpace=wrap;html=1;direction=east;fontStyle=1;strokeWidth=2;fontSize=16;labelBackgroundColor=none;" parent="6HQJpVp2JJiILHIEEDIj-50" vertex="1">
          <mxGeometry y="30" width="10" height="10" as="geometry" />
        </mxCell>
        <mxCell id="6HQJpVp2JJiILHIEEDIj-53" value="" style="endArrow=none;html=1;rounded=0;entryX=0;entryY=0.25;entryDx=0;entryDy=0;exitX=1;exitY=0.25;exitDx=0;exitDy=0;fontStyle=1;strokeWidth=2;fontSize=16;labelBackgroundColor=none;" parent="1" source="6HQJpVp2JJiILHIEEDIj-51" target="6HQJpVp2JJiILHIEEDIj-48" edge="1">
          <mxGeometry width="50" height="50" relative="1" as="geometry">
            <mxPoint x="460" y="510" as="sourcePoint" />
            <mxPoint x="510" y="460" as="targetPoint" />
          </mxGeometry>
        </mxCell>
        <mxCell id="6HQJpVp2JJiILHIEEDIj-54" value="g_wptr_sync" style="endArrow=classic;html=1;rounded=0;entryX=-0.006;entryY=0.577;entryDx=0;entryDy=0;entryPerimeter=0;exitX=1;exitY=0.25;exitDx=0;exitDy=0;fontStyle=1;strokeWidth=2;fontSize=15;labelBackgroundColor=none;" parent="1" source="6HQJpVp2JJiILHIEEDIj-48" edge="1">
          <mxGeometry x="-0.2431" y="22" width="50" height="50" relative="1" as="geometry">
            <mxPoint x="490" y="520" as="sourcePoint" />
            <mxPoint x="619.3999999999999" y="492.31999999999994" as="targetPoint" />
            <mxPoint as="offset" />
          </mxGeometry>
        </mxCell>
        <mxCell id="6HQJpVp2JJiILHIEEDIj-55" value="" style="ellipse;whiteSpace=wrap;html=1;aspect=fixed;fontStyle=1;strokeWidth=2;fontSize=16;labelBackgroundColor=none;" parent="1" vertex="1">
          <mxGeometry x="485" y="530" width="10" height="10" as="geometry" />
        </mxCell>
        <mxCell id="6HQJpVp2JJiILHIEEDIj-56" value="" style="ellipse;whiteSpace=wrap;html=1;aspect=fixed;fontStyle=1;strokeWidth=2;fontSize=16;labelBackgroundColor=none;" parent="1" vertex="1">
          <mxGeometry x="525" y="530" width="10" height="10" as="geometry" />
        </mxCell>
        <mxCell id="6HQJpVp2JJiILHIEEDIj-57" value="rd_rst_n" style="endArrow=none;html=1;rounded=0;entryX=0.5;entryY=1;entryDx=0;entryDy=0;fontStyle=1;strokeWidth=2;fontSize=16;labelBackgroundColor=none;" parent="1" target="6HQJpVp2JJiILHIEEDIj-55" edge="1">
          <mxGeometry x="-1" y="-40" width="50" height="50" relative="1" as="geometry">
            <mxPoint x="800" y="600" as="sourcePoint" />
            <mxPoint x="510" y="530" as="targetPoint" />
            <Array as="points">
              <mxPoint x="490" y="600" />
            </Array>
            <mxPoint x="40" y="40" as="offset" />
          </mxGeometry>
        </mxCell>
        <mxCell id="6HQJpVp2JJiILHIEEDIj-58" value="" style="endArrow=none;html=1;rounded=0;entryX=0.5;entryY=1;entryDx=0;entryDy=0;fontStyle=1;strokeWidth=2;fontSize=16;labelBackgroundColor=none;" parent="1" target="6HQJpVp2JJiILHIEEDIj-56" edge="1">
          <mxGeometry width="50" height="50" relative="1" as="geometry">
            <mxPoint x="530" y="600" as="sourcePoint" />
            <mxPoint x="510" y="530" as="targetPoint" />
          </mxGeometry>
        </mxCell>
        <mxCell id="6HQJpVp2JJiILHIEEDIj-59" value="" style="ellipse;whiteSpace=wrap;html=1;aspect=fixed;fontStyle=1;strokeWidth=2;fontSize=16;labelBackgroundColor=none;" parent="1" vertex="1">
          <mxGeometry x="665" y="560" width="10" height="10" as="geometry" />
        </mxCell>
        <mxCell id="6HQJpVp2JJiILHIEEDIj-60" value="" style="endArrow=none;html=1;rounded=0;entryX=0.5;entryY=1;entryDx=0;entryDy=0;fontStyle=1;strokeWidth=2;fontSize=16;labelBackgroundColor=none;" parent="1" target="6HQJpVp2JJiILHIEEDIj-59" edge="1">
          <mxGeometry width="50" height="50" relative="1" as="geometry">
            <mxPoint x="670" y="600" as="sourcePoint" />
            <mxPoint x="660" y="520" as="targetPoint" />
          </mxGeometry>
        </mxCell>
        <mxCell id="6HQJpVp2JJiILHIEEDIj-62" value="rd_empty" style="endArrow=classic;html=1;rounded=0;exitX=0.5;exitY=0;exitDx=0;exitDy=0;fontStyle=1;strokeWidth=2;fontSize=16;labelBackgroundColor=none;" parent="1" source="6HQJpVp2JJiILHIEEDIj-74" edge="1">
          <mxGeometry x="1" y="40" width="50" height="50" relative="1" as="geometry">
            <mxPoint x="670" y="400" as="sourcePoint" />
            <mxPoint x="800" y="340" as="targetPoint" />
            <Array as="points">
              <mxPoint x="670" y="340" />
            </Array>
            <mxPoint x="40" y="40" as="offset" />
          </mxGeometry>
        </mxCell>
        <mxCell id="6HQJpVp2JJiILHIEEDIj-63" value="&lt;font style=&quot;font-size: 30px;&quot;&gt;FIFO&lt;/font&gt;" style="text;html=1;align=center;verticalAlign=middle;whiteSpace=wrap;rounded=0;fontStyle=1;strokeWidth=2;fontSize=16;labelBackgroundColor=none;" parent="1" vertex="1">
          <mxGeometry x="360" y="160" width="160" height="50" as="geometry" />
        </mxCell>
        <mxCell id="6HQJpVp2JJiILHIEEDIj-64" value="" style="endArrow=none;html=1;rounded=0;entryX=0;entryY=0.5;entryDx=0;entryDy=0;fontStyle=1;strokeWidth=2;fontSize=16;labelBackgroundColor=none;" parent="1" target="6HQJpVp2JJiILHIEEDIj-52" edge="1">
          <mxGeometry width="50" height="50" relative="1" as="geometry">
            <mxPoint x="740" y="220" as="sourcePoint" />
            <mxPoint x="540" y="470" as="targetPoint" />
            <Array as="points">
              <mxPoint x="740" y="620" />
              <mxPoint x="460" y="620" />
              <mxPoint x="460" y="515" />
            </Array>
          </mxGeometry>
        </mxCell>
        <mxCell id="6HQJpVp2JJiILHIEEDIj-65" value="" style="endArrow=none;html=1;rounded=0;entryX=0;entryY=0.5;entryDx=0;entryDy=0;fontStyle=1;strokeWidth=2;fontSize=16;labelBackgroundColor=none;" parent="1" target="6HQJpVp2JJiILHIEEDIj-12" edge="1">
          <mxGeometry width="50" height="50" relative="1" as="geometry">
            <mxPoint x="120" y="480" as="sourcePoint" />
            <mxPoint x="430" y="420" as="targetPoint" />
            <Array as="points">
              <mxPoint x="120" y="280" />
            </Array>
          </mxGeometry>
        </mxCell>
        <mxCell id="6HQJpVp2JJiILHIEEDIj-66" value="" style="triangle;whiteSpace=wrap;html=1;direction=west;fontStyle=1;strokeWidth=2;fontSize=16;labelBackgroundColor=none;" parent="1" vertex="1">
          <mxGeometry x="710" y="515" width="10" height="10" as="geometry" />
        </mxCell>
        <mxCell id="6HQJpVp2JJiILHIEEDIj-67" value="" style="endArrow=none;html=1;rounded=0;exitX=0;exitY=0.5;exitDx=0;exitDy=0;fontStyle=1;strokeWidth=2;fontSize=16;labelBackgroundColor=none;" parent="1" source="6HQJpVp2JJiILHIEEDIj-66" edge="1">
          <mxGeometry width="50" height="50" relative="1" as="geometry">
            <mxPoint x="650" y="530" as="sourcePoint" />
            <mxPoint x="740" y="520" as="targetPoint" />
          </mxGeometry>
        </mxCell>
        <mxCell id="6HQJpVp2JJiILHIEEDIj-68" value="" style="triangle;whiteSpace=wrap;html=1;direction=east;fontStyle=1;strokeWidth=2;fontSize=16;labelBackgroundColor=none;" parent="1" vertex="1">
          <mxGeometry x="160" y="515" width="10" height="10" as="geometry" />
        </mxCell>
        <mxCell id="6HQJpVp2JJiILHIEEDIj-69" value="" style="endArrow=none;html=1;rounded=0;entryX=0;entryY=0.75;entryDx=0;entryDy=0;fontStyle=1;strokeWidth=2;fontSize=16;labelBackgroundColor=none;" parent="1" edge="1">
          <mxGeometry width="50" height="50" relative="1" as="geometry">
            <mxPoint x="140" y="520" as="sourcePoint" />
            <mxPoint x="160" y="520" as="targetPoint" />
          </mxGeometry>
        </mxCell>
        <mxCell id="6HQJpVp2JJiILHIEEDIj-70" value="wr_clk" style="endArrow=none;html=1;rounded=0;entryX=0;entryY=0.5;entryDx=0;entryDy=0;fontStyle=1;strokeWidth=2;fontSize=16;labelBackgroundColor=none;" parent="1" target="6HQJpVp2JJiILHIEEDIj-21" edge="1">
          <mxGeometry x="-1" y="-40" width="50" height="50" relative="1" as="geometry">
            <mxPoint x="80" y="220" as="sourcePoint" />
            <mxPoint x="290" y="240" as="targetPoint" />
            <mxPoint x="-40" y="-40" as="offset" />
          </mxGeometry>
        </mxCell>
        <mxCell id="6HQJpVp2JJiILHIEEDIj-71" value="rd_clk" style="endArrow=none;html=1;rounded=0;exitX=0;exitY=0.5;exitDx=0;exitDy=0;fontStyle=1;strokeWidth=2;fontSize=16;labelBackgroundColor=none;" parent="1" source="6HQJpVp2JJiILHIEEDIj-22" edge="1">
          <mxGeometry x="1" y="40" width="50" height="50" relative="1" as="geometry">
            <mxPoint x="540" y="230" as="sourcePoint" />
            <mxPoint x="800" y="220" as="targetPoint" />
            <mxPoint x="40" y="40" as="offset" />
          </mxGeometry>
        </mxCell>
        <mxCell id="6HQJpVp2JJiILHIEEDIj-73" value="&lt;b style=&quot;font-size: 15px;&quot;&gt;&lt;font style=&quot;font-size: 15px;&quot;&gt;b_wptr&lt;/font&gt;&lt;/b&gt;" style="endArrow=classic;html=1;rounded=0;exitX=0.993;exitY=0.1;exitDx=0;exitDy=0;exitPerimeter=0;strokeWidth=2;entryX=0;entryY=0.917;entryDx=0;entryDy=0;entryPerimeter=0;fontSize=15;" parent="1" source="6HQJpVp2JJiILHIEEDIj-72" target="6HQJpVp2JJiILHIEEDIj-12" edge="1">
          <mxGeometry x="0.0118" y="10" width="50" height="50" relative="1" as="geometry">
            <mxPoint x="300" y="409.79999999999995" as="sourcePoint" />
            <mxPoint x="350" y="380" as="targetPoint" />
            <mxPoint as="offset" />
          </mxGeometry>
        </mxCell>
        <mxCell id="6HQJpVp2JJiILHIEEDIj-75" value="&lt;b style=&quot;font-size: 15px;&quot;&gt;&lt;font style=&quot;font-size: 15px;&quot;&gt;b_rptr&lt;/font&gt;&lt;/b&gt;" style="endArrow=classic;html=1;rounded=0;exitX=0.993;exitY=0.1;exitDx=0;exitDy=0;exitPerimeter=0;strokeWidth=2;entryX=1.009;entryY=0.916;entryDx=0;entryDy=0;entryPerimeter=0;fontSize=15;" parent="1" target="6HQJpVp2JJiILHIEEDIj-12" edge="1">
          <mxGeometry x="0.0078" y="-11" width="50" height="50" relative="1" as="geometry">
            <mxPoint x="621" y="380" as="sourcePoint" />
            <mxPoint x="530" y="380" as="targetPoint" />
            <mxPoint as="offset" />
          </mxGeometry>
        </mxCell>
      </root>
    </mxGraphModel>
  </diagram>
</mxfile>
